<svg xmlns="http://www.w3.org/2000/svg" aria-hidden="true" style="position:absolute;width:0;height:0;overflow:hidden">
<defs
><symbol id="icon-star" viewBox="0 0 26 28"><path d="M26 10.109c0 .281-.203.547-.406.75l-5.672 5.531 1.344 7.812c.016.109.016.203.016.313 0 .406-.187.781-.641.781a1.27 1.27 0 0 1-.625-.187L13 21.422l-7.016 3.687c-.203.109-.406.187-.625.187-.453 0-.656-.375-.656-.781 0-.109.016-.203.031-.313l1.344-7.812L.39 10.859c-.187-.203-.391-.469-.391-.75 0-.469.484-.656.875-.719l7.844-1.141 3.516-7.109c.141-.297.406-.641.766-.641s.625.344.766.641l3.516 7.109 7.844 1.141c.375.063.875.25.875.719z"/></symbol><symbol id="icon-key" viewBox="0 0 26 28"><path d="M13 8a3.001 3.001 0 0 0-6 0c0 .453.109.891.297 1.297A3.097 3.097 0 0 0 6 9a3.001 3.001 0 0 0 0 6c1.656 0 3-1.344 3-3 0-.453-.109-.891-.297-1.297.406.187.844.297 1.297.297 1.656 0 3-1.344 3-3zm13.297 11c0 .359-1.437 1.797-1.797 1.797-.406 0-1.672-1.469-2-1.797L21 20.5l3.437 3.437c.281.281.438.672.438 1.062 0 .875-1 1.875-1.875 1.875a1.51 1.51 0 0 1-1.062-.438L11.454 15.952c-1.641 1.219-3.641 2.047-5.703 2.047-3.406 0-5.75-2.359-5.75-5.75 0-5.125 5.125-10.25 10.25-10.25 3.391 0 5.75 2.344 5.75 5.75 0 2.063-.828 4.062-2.047 5.703l5.547 5.547 1.5-1.5c-.328-.328-1.797-1.594-1.797-2 0-.359 1.437-1.797 1.797-1.797a.54.54 0 0 1 .359.156c.578.578 4.937 4.688 4.937 5.141z"/></symbol><symbol id="icon-group" viewBox="0 0 30 28"><path d="M9.266 14a5.532 5.532 0 0 0-4.141 2H3.031C1.468 16 0 15.25 0 13.516 0 12.25-.047 8 1.937 8c.328 0 1.953 1.328 4.062 1.328.719 0 1.406-.125 2.078-.359A7.624 7.624 0 0 0 7.999 10c0 1.422.453 2.828 1.266 4zM26 23.953C26 26.484 24.328 28 21.828 28H8.172C5.672 28 4 26.484 4 23.953 4 20.422 4.828 15 9.406 15c.531 0 2.469 2.172 5.594 2.172S20.063 15 20.594 15C25.172 15 26 20.422 26 23.953zM10 4c0 2.203-1.797 4-4 4S2 6.203 2 4s1.797-4 4-4 4 1.797 4 4zm11 6c0 3.313-2.688 6-6 6s-6-2.688-6-6 2.688-6 6-6 6 2.688 6 6zm9 3.516C30 15.25 28.531 16 26.969 16h-2.094a5.532 5.532 0 0 0-4.141-2A7.066 7.066 0 0 0 22 10a7.6 7.6 0 0 0-.078-1.031A6.258 6.258 0 0 0 24 9.328C26.109 9.328 27.734 8 28.062 8c1.984 0 1.937 4.25 1.937 5.516zM28 4c0 2.203-1.797 4-4 4s-4-1.797-4-4 1.797-4 4-4 4 1.797 4 4z"/></symbol><symbol id="icon-thumbs-up" viewBox="0 0 25 28"><path d="M4 21c0-.547-.453-1-1-1-.562 0-1 .453-1 1 0 .562.438 1 1 1 .547 0 1-.438 1-1zm2.5-8v10c0 .547-.453 1-1 1H1c-.547 0-1-.453-1-1V13c0-.547.453-1 1-1h4.5c.547 0 1 .453 1 1zM25 13c0 .828-.328 1.719-.859 2.328.172.5.234.969.234 1.188a3.303 3.303 0 0 1-.672 2.141 3.301 3.301 0 0 1 0 1.828 3.193 3.193 0 0 1-.844 1.469c.094 1.172-.172 2.125-.766 2.828-.672.797-1.703 1.203-3.078 1.219h-2.016c-2.234 0-4.344-.734-6.031-1.313-.984-.344-1.922-.672-2.469-.688-.531-.016-1-.453-1-1V12.984c0-.516.438-.953.953-1 .578-.047 2.078-1.906 2.766-2.812.562-.719 1.094-1.391 1.578-1.875.609-.609.781-1.547.969-2.453.172-.922.359-1.891 1.031-2.547A.996.996 0 0 1 15.499 2c3.5 0 3.5 2.797 3.5 4 0 1.281-.453 2.188-.875 3-.172.344-.328.5-.453 1h4.328c1.625 0 3 1.375 3 3z"/></symbol><symbol id="icon-database" viewBox="0 0 24 28"><path d="M12 12c4.703 0 9.422-.844 12-2.656V12c0 2.203-5.375 4-12 4S0 14.203 0 12V9.344C2.578 11.157 7.297 12 12 12zm0 12c4.703 0 9.422-.844 12-2.656V24c0 2.203-5.375 4-12 4S0 26.203 0 24v-2.656C2.578 23.157 7.297 24 12 24zm0-6c4.703 0 9.422-.844 12-2.656V18c0 2.203-5.375 4-12 4S0 20.203 0 18v-2.656C2.578 17.157 7.297 18 12 18zm0-18c6.625 0 12 1.797 12 4v2c0 2.203-5.375 4-12 4S0 8.203 0 6V4c0-2.203 5.375-4 12-4z"/></symbol><symbol id="icon-envelope-open" viewBox="0 0 28 28"><path d="M28 10.219V25.5c0 1.375-1.125 2.5-2.5 2.5h-23A2.507 2.507 0 0 1 0 25.5V10.219a.5.5 0 0 1 .172-.375c1.641-1.437 1.656-1.609 9.812-7.562C10.968 1.563 12.703.001 14 .001s3.047 1.578 4.016 2.281c8.156 5.953 8.172 6.125 9.812 7.562a.5.5 0 0 1 .172.375zm-8.813 9.14c2.438-1.766 4.141-3 5.391-3.938a.48.48 0 0 0 .094-.688l-.594-.812a.5.5 0 0 0-.703-.094c-1.234.906-2.922 2.156-5.359 3.906-.969.703-2.719 2.266-4.016 2.266s-3.047-1.563-4.016-2.266c-2.438-1.766-4.125-3-5.359-3.906a.5.5 0 0 0-.703.094l-.594.812a.48.48 0 0 0 .094.688c1.25.938 2.953 2.172 5.391 3.938C10.032 20.234 11.954 22 14 22c2.063 0 4.031-1.797 5.187-2.641z"/></symbol></defs></svg>